<svg width="46" height="46" viewBox="0 0 46 46" fill="none" xmlns="http://www.w3.org/2000/svg">
<path d="M23.144 7.35985C22.8992 7.36638 22.664 7.4447 22.472 7.58395L11.1573 15.7888C10.8909 15.9824 10.7349 16.2762 10.7349 16.5873V36.0713H9.60435C9.0475 36.0713 9.08111 37.3594 9.60435 37.3594H36.7509C37.4037 37.2092 37.2909 36.0713 36.7509 36.0713H35.6204V22.7425C35.6228 22.3226 35.3396 21.944 34.9123 21.7874L24.3129 17.9472V8.38681C24.3081 7.80588 23.7801 7.34244 23.144 7.35985ZM22.6352 9.74014V36.0691H12.3286V17.079L22.6352 9.74014ZM24.3081 19.8118L33.9426 23.0928V36.0691H24.3081V19.8118Z" fill="#010101"/>
<path d="M18.6523 23.7617H20.9158V25.8135H18.6523V23.7617Z" fill="#010101"/>
<path d="M14.1211 19.6641H16.3845V21.7158H14.1211V19.6641Z" fill="#010101"/>
<path d="M14.1211 27.8672H16.3845V29.9189H14.1211V27.8672Z" fill="#010101"/>
<path d="M18.6523 31.9688H20.9158V34.0205H18.6523V31.9688Z" fill="#010101"/>
<path d="M18.6523 15.5625H20.9158V17.6143H18.6523V15.5625Z" fill="#010101"/>
<path d="M25.4414 23.7617H27.7048V25.8135H25.4414V23.7617Z" fill="#010101"/>
<path d="M29.9648 27.8672H32.2283V29.9189H29.9648V27.8672Z" fill="#010101"/>
<path d="M25.4414 31.9688H27.7048V34.0205H25.4414V31.9688Z" fill="#010101"/>
</svg>
