<svg width="46" height="46" viewBox="0 0 46 46" fill="none" xmlns="http://www.w3.org/2000/svg">
<path d="M30.5004 11H15.4996C12.9496 11 11 12.939 11 15.475V30.3926C11 32.3316 12.8953 34.0758 14.6948 34.6728L11.809 36.6374C11.3588 37.2345 11.5088 38.2779 12.1092 38.7256C12.7095 39.1734 13.7586 39.0242 14.2089 38.4271L14.4018 37.5429L32.0284 37.361L32.4644 38.4072C32.9146 39.0043 33.5964 39.2019 34.1967 38.7555C34.797 38.3091 34.9471 37.2643 34.4969 36.6673L31.5124 34.6359C33.312 34.0388 35 32.4823 35 30.394V15.475C35 12.939 33.0504 11 30.5004 11ZM33.7222 15.3101V23.393H23.5653V12.2879H30.9578C32.1771 12.2879 33.7222 13.9767 33.7222 15.3101ZM15.3395 12.2879H22.5076V23.393H12.3321V15.5447C12.3321 14.2113 14.1174 12.2879 15.3395 12.2879ZM14.6248 36.5024L16.3643 34.7226L30.2374 34.869L31.7368 36.6516L14.6248 36.5024ZM31.1608 33.4091C31.1608 33.4091 19.7747 33.4091 15.318 33.4091C14.2489 33.4091 12.3321 31.7047 12.3321 30.6314C12.3321 28.8431 12.3321 24.4662 12.3321 24.4662H33.7236V30.5021C33.7222 31.5753 32.2299 33.4091 31.1608 33.4091Z" fill="#010101"/>
<path d="M17.7722 27.4102H16.2728C15.3723 27.4102 14.7734 27.8409 14.7734 28.4877C14.7734 29.1345 15.3738 29.5652 16.2728 29.5652H17.7722C18.6727 29.5652 19.2716 29.1345 19.2716 28.4877C19.2716 27.8409 18.6727 27.4102 17.7722 27.4102Z" fill="#010101"/>
<path d="M29.4597 27.4102H27.9603C27.0598 27.4102 26.4609 27.8409 26.4609 28.4877C26.4609 29.1345 27.0613 29.5652 27.9603 29.5652H29.4597C30.3602 29.5652 30.9591 29.1345 30.9591 28.4877C30.9591 27.8409 30.3587 27.4102 29.4597 27.4102Z" fill="#010101"/>
</svg>
