<svg width="46" height="46" viewBox="0 0 46 46" fill="none" xmlns="http://www.w3.org/2000/svg">
<path d="M25.9815 12.4774V9.69477C25.9815 9.31133 26.2915 9 26.6694 9C27.0473 9 27.3573 9.31133 27.3573 9.69477V12.4774C27.3573 12.8608 27.0473 13.1721 26.6694 13.1721C26.2915 13.1721 25.9815 12.8608 25.9815 12.4774ZM31.7424 15.0049C31.92 15.0049 32.0942 14.9363 32.23 14.8026L34.177 12.8362C34.4435 12.5653 34.4435 12.1238 34.177 11.8529C33.9088 11.5821 33.47 11.5821 33.2035 11.8529L31.2565 13.8194C30.9883 14.0903 30.9883 14.5318 31.2565 14.8026C31.3889 14.9381 31.5665 15.0049 31.7424 15.0049ZM36.3121 18.7373H33.557C33.1791 18.7373 32.8691 19.0486 32.8691 19.4321C32.8691 19.8155 33.1791 20.1268 33.557 20.1268H36.3121C36.69 20.1268 37 19.8155 37 19.4321C37 19.0486 36.69 18.7373 36.3121 18.7373ZM22.4897 14.8026C22.6256 14.9398 22.7997 15.0049 22.9774 15.0049C23.1515 15.0049 23.3291 14.9363 23.465 14.8026C23.7332 14.5318 23.7332 14.0903 23.465 13.8194L21.5162 11.8512C21.248 11.5803 20.8109 11.5803 20.5427 11.8512C20.2745 12.1221 20.2745 12.5635 20.5427 12.8344L22.4897 14.8026ZM32.8239 22.2358C33.8792 23.2506 34.44 24.9392 34.3564 26.3621C34.0743 31.2009 30.1785 32.601 29.4262 32.6485H27.1117L25.9571 36.6535C25.8735 36.9648 25.5966 36.9965 25.2936 36.9965C25.2344 36.9965 24.529 36.708 24.6301 36.3369L25.6872 32.6485H24.3566L23.202 36.6535C23.1202 36.9666 22.8415 36.9965 22.5385 36.9965C22.4793 36.9965 21.774 36.708 21.875 36.3386L22.9321 32.6485H21.6033L20.4469 36.6535C20.3651 36.9666 20.0865 36.9965 19.7834 36.9965C19.7242 36.9965 19.0189 36.708 19.1199 36.3386L20.177 32.6502H18.8482L17.6919 36.6553C17.61 36.9683 17.3314 36.9982 17.0284 36.9982C16.9692 36.9982 16.2638 36.7098 16.3649 36.3404L17.4219 32.652H16.0932L14.9368 36.657C14.855 36.9701 14.5763 37 14.2733 37C14.2141 37 13.5088 36.7115 13.6098 36.3422L14.6669 32.6537H12.8975C12.6572 32.6537 8.99478 30.828 9.00001 26.2883C9.00175 23.8452 10.7345 21.5867 13.0333 21.0379C13.6481 18.1815 16.1524 16.0391 19.0555 16.0391C20.4609 16.0391 21.7757 16.4965 22.838 17.3425C23.303 15.1913 25.1995 13.6083 27.4478 13.6242C28.7034 13.6347 29.8842 14.1254 30.7637 15.0172C31.6518 15.9125 32.1325 17.098 32.122 18.3591C32.1133 19.3863 31.7633 20.3502 31.1538 21.1505C31.765 21.402 32.3293 21.7626 32.8239 22.2358ZM24.1198 17.8719C24.1093 17.944 24.0797 18.0091 24.0501 18.0724C26.1069 17.9862 28.0068 19.0293 29.1023 20.7477C29.3025 20.746 29.4924 20.7794 29.6891 20.7987C29.7187 20.7424 29.7518 20.6826 29.7989 20.6334C30.4014 20.0248 30.741 19.214 30.7462 18.3451C30.7532 17.4586 30.4136 16.6249 29.7919 15.9934C29.1649 15.362 28.329 15.0102 27.4374 15.0031C25.7812 15.0014 24.3392 16.2256 24.1198 17.8719ZM32.9789 26.3041C33.0259 25.2839 32.6323 24.1459 31.873 23.4142C31.0527 22.6262 29.8946 22.1355 28.787 22.241C28.5101 22.2692 28.2489 22.0827 28.1183 21.8382C27.2301 20.1831 25.4608 19.1612 23.5068 19.5394C23.2525 19.5904 22.9896 19.476 22.8311 19.2685C21.9307 18.0759 20.5549 17.39 19.0555 17.39C16.6731 17.39 14.6338 19.2157 14.3099 21.6377C14.2681 21.9508 14.0243 22.1935 13.7143 22.234C11.8421 22.4785 10.1912 24.5364 10.3758 26.4554C10.7015 29.843 12.6102 30.7031 13.3433 31.2537H15.0361L16.1924 26.5539C16.29 26.181 16.6696 25.7905 17.0336 25.8872C17.4028 25.9822 17.6205 26.626 17.5212 26.9989L16.4624 31.2537H17.7911L18.9475 26.5539C19.0433 26.181 19.4247 25.7905 19.7887 25.8872C20.1579 25.9822 20.3755 26.626 20.2763 26.9989L19.2174 31.2537H20.5462L21.7026 26.5539C21.7984 26.181 22.1798 25.7905 22.5437 25.8872C22.9129 25.9822 23.1306 26.626 23.0313 26.9989L21.9725 31.2537H23.303L24.4576 26.5539C24.5534 26.181 24.9383 25.7905 25.2988 25.8872C25.668 25.9822 25.8857 26.626 25.7864 26.9989L24.7276 31.2537H26.0581L27.2127 26.5539C27.3102 26.181 27.6916 25.7905 28.0539 25.8872C28.4231 25.9822 28.6408 26.626 28.5415 26.9989L27.4826 31.2537H28.8306C29.9713 31.1129 32.8099 30.4375 32.9789 26.3041Z" fill="#010101"/>
</svg>
