<svg width="28" height="28" viewBox="0 0 28 28" fill="none" xmlns="http://www.w3.org/2000/svg">
<path d="M14 26.25C10.7511 26.25 7.63526 24.9594 5.33794 22.6621C3.04062 20.3647 1.75 17.2489 1.75 14C1.75 10.7511 3.04062 7.63526 5.33794 5.33794C7.63526 3.04062 10.7511 1.75 14 1.75C17.2489 1.75 20.3647 3.04062 22.6621 5.33794C24.9594 7.63526 26.25 10.7511 26.25 14C26.25 17.2489 24.9594 20.3647 22.6621 22.6621C20.3647 24.9594 17.2489 26.25 14 26.25ZM14 28C17.713 28 21.274 26.525 23.8995 23.8995C26.525 21.274 28 17.713 28 14C28 10.287 26.525 6.72601 23.8995 4.10051C21.274 1.475 17.713 0 14 0C10.287 0 6.72601 1.475 4.10051 4.10051C1.475 6.72601 0 10.287 0 14C0 17.713 1.475 21.274 4.10051 23.8995C6.72601 26.525 10.287 28 14 28Z" fill="black"/>
<path d="M9.19568 10.1255C9.19329 10.182 9.20248 10.2384 9.22269 10.2913C9.2429 10.3441 9.2737 10.3922 9.31321 10.4327C9.35271 10.4732 9.40008 10.5052 9.4524 10.5267C9.50471 10.5482 9.56088 10.5588 9.61743 10.5577H11.0612C11.3027 10.5577 11.4952 10.36 11.5267 10.1202C11.6842 8.97225 12.4717 8.13575 13.8752 8.13575C15.0757 8.13575 16.1747 8.736 16.1747 10.1797C16.1747 11.291 15.5202 11.802 14.4859 12.579C13.3082 13.4348 12.3754 14.434 12.4419 16.0563L12.4472 16.436C12.449 16.5508 12.4959 16.6603 12.5778 16.7408C12.6596 16.8214 12.7699 16.8665 12.8847 16.8665H14.3039C14.42 16.8665 14.5312 16.8204 14.6133 16.7384C14.6953 16.6563 14.7414 16.545 14.7414 16.429V16.2452C14.7414 14.9888 15.2192 14.623 16.5089 13.6447C17.5747 12.8345 18.6859 11.935 18.6859 10.0468C18.6859 7.4025 16.4529 6.125 14.0082 6.125C11.7909 6.125 9.36193 7.1575 9.19568 10.1255ZM11.9204 20.2107C11.9204 21.1435 12.6642 21.833 13.6879 21.833C14.7537 21.833 15.4869 21.1435 15.4869 20.2107C15.4869 19.2448 14.7519 18.5658 13.6862 18.5658C12.6642 18.5658 11.9204 19.2448 11.9204 20.2107Z" fill="black"/>
</svg>
