<svg width="29" height="23" viewBox="0 0 29 23" fill="none" xmlns="http://www.w3.org/2000/svg">
<path d="M23.7626 7.90431C22.6777 7.63709 21.5244 7.65604 20.5152 7.95763L20.4737 7.96994L17.454 9.23898L8.64159 6.14111C8.25689 6.00444 7.83652 5.96604 7.42835 6.03031C7.02018 6.09457 6.64063 6.25891 6.33292 6.50459L5.15315 7.43968C5.02869 7.53834 4.93095 7.66052 4.8672 7.79715C4.80344 7.93378 4.77529 8.08136 4.78485 8.22892C4.79441 8.37648 4.84142 8.52025 4.92241 8.64955C5.00339 8.77885 5.11626 8.89036 5.25265 8.97582L10.7154 12.3989L8.61997 13.3695L6.96052 12.0288C6.64324 11.773 6.24916 11.6036 5.82563 11.541C5.40211 11.4784 4.96716 11.5253 4.57305 11.6761L3.67061 12.022C3.52957 12.0761 3.4027 12.1554 3.29802 12.2549C3.19334 12.3545 3.1131 12.4721 3.06237 12.6004C3.01164 12.7287 2.99151 12.8649 3.00325 13.0005C3.01499 13.136 3.05835 13.2679 3.13059 13.3879L6.50845 19L24.9042 10.9824C26.0057 10.524 26.14 9.79109 25.8977 9.25731C25.6293 8.66553 24.8509 8.17239 23.7626 7.90431ZM24.2682 9.79651L24.2613 9.79938L7.14282 17.2602L4.62982 13.0848L5.16326 12.8802C5.29463 12.83 5.43962 12.8143 5.5808 12.8352C5.72198 12.8561 5.85334 12.9125 5.9591 12.9978L8.38675 14.9592L13.5508 12.5672L6.49008 8.14261L7.32368 7.48193C7.42625 7.40004 7.55276 7.34527 7.68881 7.32385C7.82487 7.30243 7.96499 7.31522 8.09322 7.36076L17.5069 10.67L21.0299 9.18951C21.7468 8.98406 22.6006 8.97766 23.3799 9.17257C24.0216 9.33311 24.3624 9.56633 24.4779 9.68864C24.4126 9.73122 24.3424 9.76743 24.2683 9.79663L24.2682 9.79651Z" fill="#1E54B0"/>
</svg>
