<svg width="21" height="18" viewBox="0 0 21 18" fill="none" xmlns="http://www.w3.org/2000/svg">
<path d="M17.3462 5.46485C16.5444 5.2593 15.6919 5.27388 14.946 5.50587L14.9154 5.51534L12.6834 6.49152L6.16987 4.10854C5.88553 4.00341 5.57482 3.97388 5.27313 4.02331C4.97144 4.07275 4.6909 4.19916 4.46347 4.38815L3.59146 5.10745C3.49947 5.18334 3.42723 5.27733 3.3801 5.38243C3.33298 5.48753 3.31217 5.60104 3.31924 5.71455C3.3263 5.82806 3.36105 5.93865 3.42091 6.03811C3.48077 6.13757 3.56419 6.22335 3.665 6.28909L7.70266 8.92226L6.15389 9.66885L4.92734 8.63755C4.69283 8.44075 4.40155 8.31046 4.08851 8.26232C3.77547 8.21419 3.45399 8.25026 3.16269 8.36621L2.49567 8.63234C2.39142 8.67392 2.29765 8.73491 2.22028 8.81148C2.1429 8.88805 2.0836 8.97853 2.0461 9.07723C2.0086 9.17593 1.99373 9.28071 2.0024 9.38497C2.01108 9.48922 2.04313 9.59069 2.09652 9.68299L4.5932 14L18.1901 7.83262C19.0042 7.47998 19.1035 6.91623 18.9244 6.50562C18.726 6.05041 18.1507 5.67107 17.3462 5.46485ZM17.7199 6.92039L17.7148 6.9226L5.06208 12.6617L3.20465 9.44983L3.59893 9.29248C3.69603 9.25383 3.8032 9.2418 3.90755 9.25785C4.0119 9.27389 4.10899 9.31733 4.18716 9.38294L5.98151 10.8917L9.79844 9.05168L4.57962 5.64816L5.19576 5.13994C5.27158 5.07695 5.36509 5.03482 5.46565 5.01834C5.56621 5.00187 5.66977 5.01171 5.76455 5.04674L12.7225 7.5923L15.3264 6.45347C15.8563 6.29543 16.4874 6.29051 17.0634 6.44044C17.5377 6.56393 17.7896 6.74333 17.875 6.83741C17.8267 6.87017 17.7747 6.89793 17.7199 6.92039Z" fill="black"/>
</svg>
