<svg width="46" height="46" viewBox="0 0 46 46" fill="none" xmlns="http://www.w3.org/2000/svg">
<path d="M37.5002 28.9093C37.5002 22.2915 32.9499 16.6178 26.6506 15.0825C26.884 14.6095 27.0007 14.1366 27.0007 13.5454C26.9989 11.5371 25.4834 10 23.4991 10C21.5149 10 19.9993 11.5371 19.9993 13.5454C19.9993 14.1366 20.116 14.6095 20.3494 15.0825C14.0501 16.6196 9.49982 22.2915 9.49982 28.9093C7.51737 28.9093 6 30.4464 6 32.4546C6 34.4629 7.51737 36 9.49982 36H37.5002C39.4826 36 41 34.4629 41 32.4546C41 30.4464 39.4826 28.9093 37.5002 28.9093ZM23.4991 11.2206C24.722 11.2206 25.539 12.0465 25.539 13.2871C25.539 14.5277 24.7238 15.3535 23.4991 15.3535C22.2762 15.3535 21.4592 14.5277 21.4592 13.2871C21.4592 12.0465 22.2762 11.2206 23.4991 11.2206ZM23.4991 16.0739C30.1629 16.0739 35.6165 21.5984 35.6165 28.349H11.3817C11.3817 21.5966 16.8353 16.0739 23.4991 16.0739ZM37.6223 34.8322H9.48366C8.77974 34.8322 7.42938 33.8098 7.42938 32.2764C7.42938 30.7429 8.77974 29.7206 9.48366 29.7206H37.6223C38.3262 29.7206 39.7717 30.9594 39.7717 32.4928C39.7717 34.0263 38.3262 34.8322 37.6223 34.8322Z" fill="#010101"/>
</svg>
