<svg width="46" height="46" viewBox="0 0 46 46" fill="none" xmlns="http://www.w3.org/2000/svg">
<path d="M12.75 20.0011L12.75 20.0009C12.7532 17.2832 13.8342 14.6777 15.756 12.756C17.6775 10.8344 20.2826 9.75344 23 9.75C25.7174 9.75344 28.3225 10.8344 30.2441 12.756C32.1658 14.6777 33.2468 17.2832 33.25 20.0009V20.0011C33.2532 22.2191 32.5287 24.3769 31.1876 26.1435L31.1126 26.2423L31.1121 26.2438L31.0332 26.3468C31.0136 26.3723 30.9937 26.3981 30.9747 26.4229C30.9548 26.4487 30.9358 26.4733 30.9187 26.4953L30.8766 26.5494C30.8685 26.5597 30.8641 26.5652 30.8623 26.5674L23 35.8403L15.1371 26.567L15.1371 26.5669L15.1337 26.5631C15.1346 26.5641 15.1335 26.5627 15.1304 26.5587C15.1238 26.5505 15.1084 26.5311 15.082 26.497C15.0485 26.454 15.0076 26.4009 14.9675 26.3485L14.8602 26.2081L14.826 26.1631L14.8165 26.1506L14.8141 26.1474L14.8135 26.1466L14.8134 26.1465C14.8133 26.1465 14.8133 26.1464 14.8133 26.1464C13.4716 24.3789 12.7468 22.2201 12.75 20.0011ZM27.75 20.0009V20C27.75 19.0605 27.4714 18.1422 26.9495 17.361C26.4276 16.5799 25.6857 15.9711 24.8178 15.6116C23.9498 15.2521 22.9947 15.158 22.0733 15.3413C21.1519 15.5245 20.3056 15.9769 19.6413 16.6412C18.977 17.3055 18.5246 18.1519 18.3413 19.0733C18.158 19.9947 18.2521 20.9498 18.6116 21.8177C18.9711 22.6857 19.5799 23.4275 20.3611 23.9495C21.1422 24.4714 22.0605 24.75 23 24.75L23.0009 24.75C24.26 24.7484 25.467 24.2476 26.3573 23.3573C27.2476 22.467 27.7484 21.26 27.75 20.0009Z" stroke="black" stroke-width="1.5"/>
</svg>
